# xmcd
#
# Track frame offsets: 
#        150
#        13379
#        26129
#        39798
#        54048
#        67393
#        81343
#        95366
#        108116
#        121653
#        130953
#        145586
#        161036
#        174761
#        188861
#        201111
#        215150
#        227798
#
# Disc length: 3230 seconds
#
# Revision: 0
# Processed by: cddbd v1.5.2PL0 Copyright (c) Steve Scherf et al.
# Submitted via: ExactAudioCopyFreeDBPlugin 1.0
#
DISCID=f50c9c12
DTITLE=Various Artist - Reefer Blues- Vintage Songs About Marijuana V
DTITLE=olume 3
DYEAR=2010
DGENRE=Blues
TTITLE0=Julia Lee and Her Boy Friends - The Spinach Song (I Didn't Like 
TTITLE0=It The First Time)
TTITLE1=Cow Cow Davenport - The Mess Is Here
TTITLE2=Jazz Gillum and His Jazz Boys - Reefer Head Woman
TTITLE3=Stuff Smith and His Onyx Club Boys - You'se A Viper
TTITLE4=Richard M. Jones and His Jazz Wizards - Blue Reefer Blues (Instr
TTITLE4=umental)
TTITLE5=Tamps Red and The Chicago Five - I'm Gonna Get High
TTITLE6=Sammy Price and His Texad Blusicians - Do You Dig My Jive
TTITLE7=Lousi Armstrong and His Orchestra - Muggles (Instrumental)
TTITLE8=Cab Calloway and His Cotton Club Orchestra - Reefer Man
TTITLE9=Slim and Slam - Dopey Joe
TTITLE10=Adrian Rollini and His Tap Room Gang - Got A Need For You
TTITLE11=Willie Bryant and His Orchestra - A Viper's Moan
TTITLE12=Bae Foote - Weed
TTITLE13=DonReadman and His Orchestra - Chant Of The Weed (Instrumental)
TTITLE14=Floyd Ray and His Orchestra - Three O'Clock In The Morning
TTITLE15=Yack Taylor - Knockin' Myself Out
TTITLE16=Cootie Williams and His Rug Cutters - Ol' Man River (Smoke A Li
TTITLE16=ttle Tea)
TTITLE17=Hazel Meyers - Pipe Dream Blues
EXTD=
EXTT0=
EXTT1=
EXTT2=
EXTT3=
EXTT4=
EXTT5=
EXTT6=
EXTT7=
EXTT8=
EXTT9=
EXTT10=
EXTT11=
EXTT12=
EXTT13=
EXTT14=
EXTT15=
EXTT16=
EXTT17=
PLAYORDER=
